<mxfile host="Electron" agent="Mozilla/5.0 (Windows NT 10.0; Win64; x64) AppleWebKit/537.36 (KHTML, like Gecko) draw.io/24.7.17 Chrome/128.0.6613.36 Electron/32.0.1 Safari/537.36" version="24.7.17">
  <diagram name="Page-1" id="zXV77zgW1vlgLexv1xuS">
    <mxGraphModel dx="1434" dy="844" grid="1" gridSize="10" guides="1" tooltips="1" connect="1" arrows="1" fold="1" page="1" pageScale="1" pageWidth="850" pageHeight="1100" math="0" shadow="0">
      <root>
        <mxCell id="0" />
        <mxCell id="1" parent="0" />
        <mxCell id="pt6PdEiMAnSn8uvLqeFs-2" value="&lt;font style=&quot;font-size: 16px;&quot;&gt;Client Sign up&lt;/font&gt;" style="rounded=0;whiteSpace=wrap;html=1;fillColor=#a0522d;fontColor=#ffffff;strokeColor=#6D1F00;" parent="1" vertex="1">
          <mxGeometry x="80" y="140" width="680" height="60" as="geometry" />
        </mxCell>
        <mxCell id="pt6PdEiMAnSn8uvLqeFs-3" value="" style="rounded=0;whiteSpace=wrap;html=1;fillColor=#76608a;fontColor=#ffffff;strokeColor=#432D57;" parent="1" vertex="1">
          <mxGeometry x="80" y="200" width="680" height="760" as="geometry" />
        </mxCell>
        <mxCell id="pt6PdEiMAnSn8uvLqeFs-4" value="Name" style="text;html=1;align=left;verticalAlign=middle;whiteSpace=wrap;rounded=0;" parent="1" vertex="1">
          <mxGeometry x="162" y="239" width="60" height="30" as="geometry" />
        </mxCell>
        <mxCell id="pt6PdEiMAnSn8uvLqeFs-5" value="Age" style="text;html=1;align=left;verticalAlign=middle;whiteSpace=wrap;rounded=0;" parent="1" vertex="1">
          <mxGeometry x="162" y="280" width="60" height="30" as="geometry" />
        </mxCell>
        <mxCell id="pt6PdEiMAnSn8uvLqeFs-7" value="Place&amp;nbsp;" style="text;html=1;align=left;verticalAlign=middle;whiteSpace=wrap;rounded=0;" parent="1" vertex="1">
          <mxGeometry x="162" y="323" width="60" height="30" as="geometry" />
        </mxCell>
        <mxCell id="pt6PdEiMAnSn8uvLqeFs-8" value="Joining Date" style="text;html=1;align=left;verticalAlign=middle;whiteSpace=wrap;rounded=0;" parent="1" vertex="1">
          <mxGeometry x="157" y="371" width="80" height="30" as="geometry" />
        </mxCell>
        <mxCell id="pt6PdEiMAnSn8uvLqeFs-9" value="End Date" style="text;html=1;align=left;verticalAlign=middle;whiteSpace=wrap;rounded=0;" parent="1" vertex="1">
          <mxGeometry x="157" y="422" width="60" height="30" as="geometry" />
        </mxCell>
        <mxCell id="pt6PdEiMAnSn8uvLqeFs-10" value="Existing Ailments" style="text;html=1;align=left;verticalAlign=middle;whiteSpace=wrap;rounded=0;" parent="1" vertex="1">
          <mxGeometry x="157" y="471" width="100" height="30" as="geometry" />
        </mxCell>
        <mxCell id="pt6PdEiMAnSn8uvLqeFs-11" value="Course Duration" style="text;html=1;align=left;verticalAlign=middle;whiteSpace=wrap;rounded=0;" parent="1" vertex="1">
          <mxGeometry x="157" y="524.5" width="100" height="30" as="geometry" />
        </mxCell>
        <mxCell id="pt6PdEiMAnSn8uvLqeFs-12" value="Course Taken" style="text;html=1;align=left;verticalAlign=middle;whiteSpace=wrap;rounded=0;" parent="1" vertex="1">
          <mxGeometry x="157" y="586" width="90" height="30" as="geometry" />
        </mxCell>
        <mxCell id="pt6PdEiMAnSn8uvLqeFs-13" value="Money Paid" style="text;html=1;align=left;verticalAlign=middle;whiteSpace=wrap;rounded=0;" parent="1" vertex="1">
          <mxGeometry x="157" y="637.5" width="80" height="30" as="geometry" />
        </mxCell>
        <mxCell id="pt6PdEiMAnSn8uvLqeFs-14" value="Money Pending" style="text;html=1;align=left;verticalAlign=middle;whiteSpace=wrap;rounded=0;" parent="1" vertex="1">
          <mxGeometry x="157" y="690" width="100" height="30" as="geometry" />
        </mxCell>
        <mxCell id="pt6PdEiMAnSn8uvLqeFs-15" value="Text Editor" style="rounded=0;whiteSpace=wrap;html=1;fillColor=#f0a30a;fontColor=#000000;strokeColor=#BD7000;" parent="1" vertex="1">
          <mxGeometry x="430" y="239" width="240" height="25" as="geometry" />
        </mxCell>
        <mxCell id="pt6PdEiMAnSn8uvLqeFs-16" value="Drop Down" style="rounded=0;whiteSpace=wrap;html=1;fillColor=#f0a30a;fontColor=#000000;strokeColor=#BD7000;" parent="1" vertex="1">
          <mxGeometry x="430" y="325.5" width="240" height="25" as="geometry" />
        </mxCell>
        <mxCell id="pt6PdEiMAnSn8uvLqeFs-17" value="Drop Down" style="rounded=0;whiteSpace=wrap;html=1;fillColor=#f0a30a;fontColor=#000000;strokeColor=#BD7000;" parent="1" vertex="1">
          <mxGeometry x="430" y="282.5" width="240" height="25" as="geometry" />
        </mxCell>
        <mxCell id="pt6PdEiMAnSn8uvLqeFs-18" value="Calendar" style="rounded=0;whiteSpace=wrap;html=1;fillColor=#f0a30a;fontColor=#000000;strokeColor=#BD7000;" parent="1" vertex="1">
          <mxGeometry x="430" y="371" width="240" height="25" as="geometry" />
        </mxCell>
        <mxCell id="pt6PdEiMAnSn8uvLqeFs-19" value="Calendar" style="rounded=0;whiteSpace=wrap;html=1;fillColor=#f0a30a;fontColor=#000000;strokeColor=#BD7000;" parent="1" vertex="1">
          <mxGeometry x="430" y="422" width="240" height="25" as="geometry" />
        </mxCell>
        <mxCell id="pt6PdEiMAnSn8uvLqeFs-20" value="Text Editor" style="rounded=0;whiteSpace=wrap;html=1;fillColor=#f0a30a;fontColor=#000000;strokeColor=#BD7000;" parent="1" vertex="1">
          <mxGeometry x="430" y="473.5" width="240" height="25" as="geometry" />
        </mxCell>
        <mxCell id="pt6PdEiMAnSn8uvLqeFs-21" value="Drop down of months" style="rounded=0;whiteSpace=wrap;html=1;fillColor=#f0a30a;fontColor=#000000;strokeColor=#BD7000;" parent="1" vertex="1">
          <mxGeometry x="428" y="529.5" width="240" height="25" as="geometry" />
        </mxCell>
        <mxCell id="pt6PdEiMAnSn8uvLqeFs-22" value="Drop down of course types" style="rounded=0;whiteSpace=wrap;html=1;fillColor=#f0a30a;fontColor=#000000;strokeColor=#BD7000;" parent="1" vertex="1">
          <mxGeometry x="427" y="580" width="240" height="25" as="geometry" />
        </mxCell>
        <mxCell id="pt6PdEiMAnSn8uvLqeFs-24" value="numeric entry" style="rounded=0;whiteSpace=wrap;html=1;fillColor=#f0a30a;fontColor=#000000;strokeColor=#BD7000;" parent="1" vertex="1">
          <mxGeometry x="430" y="640" width="240" height="25" as="geometry" />
        </mxCell>
        <mxCell id="pt6PdEiMAnSn8uvLqeFs-25" value="numeric entry" style="rounded=0;whiteSpace=wrap;html=1;fillColor=#f0a30a;fontColor=#000000;strokeColor=#BD7000;" parent="1" vertex="1">
          <mxGeometry x="429" y="692.5" width="240" height="25" as="geometry" />
        </mxCell>
        <mxCell id="pt6PdEiMAnSn8uvLqeFs-26" value="Enter into Databae" style="rounded=0;whiteSpace=wrap;html=1;fillColor=#647687;fontColor=#ffffff;strokeColor=#314354;" parent="1" vertex="1">
          <mxGeometry x="270" y="860" width="120" height="40" as="geometry" />
        </mxCell>
        <mxCell id="pt6PdEiMAnSn8uvLqeFs-27" value="Update into Database" style="rounded=0;whiteSpace=wrap;html=1;fillColor=#647687;fontColor=#ffffff;strokeColor=#314354;" parent="1" vertex="1">
          <mxGeometry x="460" y="860" width="120" height="40" as="geometry" />
        </mxCell>
        <mxCell id="pt6PdEiMAnSn8uvLqeFs-28" value="Phone" style="text;html=1;align=left;verticalAlign=middle;whiteSpace=wrap;rounded=0;" parent="1" vertex="1">
          <mxGeometry x="157" y="735" width="80" height="30" as="geometry" />
        </mxCell>
        <mxCell id="pt6PdEiMAnSn8uvLqeFs-29" value="Email Id" style="text;html=1;align=left;verticalAlign=middle;whiteSpace=wrap;rounded=0;" parent="1" vertex="1">
          <mxGeometry x="159" y="790" width="100" height="30" as="geometry" />
        </mxCell>
        <mxCell id="pt6PdEiMAnSn8uvLqeFs-30" value="Numeric Entry" style="rounded=0;whiteSpace=wrap;html=1;fillColor=#f0a30a;fontColor=#000000;strokeColor=#BD7000;" parent="1" vertex="1">
          <mxGeometry x="429" y="740" width="240" height="25" as="geometry" />
        </mxCell>
        <mxCell id="pt6PdEiMAnSn8uvLqeFs-31" value="text entry" style="rounded=0;whiteSpace=wrap;html=1;fillColor=#f0a30a;fontColor=#000000;strokeColor=#BD7000;" parent="1" vertex="1">
          <mxGeometry x="428" y="792.5" width="240" height="25" as="geometry" />
        </mxCell>
      </root>
    </mxGraphModel>
  </diagram>
</mxfile>
